<?xml version="1.0" standalone="no"?>
<!DOCTYPE svg PUBLIC "-//W3C//DTD SVG 20010904//EN"
 "http://www.w3.org/TR/2001/REC-SVG-20010904/DTD/svg10.dtd">
<svg version="1.0" xmlns="http://www.w3.org/2000/svg"
 width="128.000000pt" height="128.000000pt" viewBox="0 0 128.000000 128.000000"
 preserveAspectRatio="xMidYMid meet">

<g transform="translate(0.000000,128.000000) scale(0.100000,-0.100000)"
fill="#000000" stroke="none">
<path d="M390 1149 c-57 -23 -93 -75 -104 -151 -7 -47 -8 -48 -44 -48 -51 0
-122 -38 -149 -79 -23 -33 -23 -39 -23 -336 0 -297 0 -303 23 -335 12 -18 35
-43 50 -54 27 -20 41 -21 375 -24 344 -3 347 -2 392 20 33 17 51 35 68 68 15
30 32 48 50 54 41 14 81 44 97 76 17 32 85 495 85 576 0 60 -27 107 -78 137
-23 14 -117 31 -345 63 -329 46 -357 49 -397 33z m366 -109 c159 -22 299 -42
312 -45 38 -9 62 -41 62 -82 0 -33 -49 -407 -65 -501 -6 -33 -36 -72 -55 -72
-6 0 -10 88 -10 243 0 232 -1 244 -23 282 -14 26 -37 48 -67 63 -42 21 -55 22
-297 22 -196 0 -253 3 -253 13 0 60 41 117 85 117 12 0 151 -18 311 -40z m140
-203 l24 -28 0 -269 c0 -179 -4 -277 -11 -294 -21 -44 -44 -47 -393 -44 l-328
3 -19 24 c-18 22 -19 42 -19 301 0 153 3 286 6 295 16 41 53 45 392 42 l324
-2 24 -28z"/>
<path d="M506 694 c-11 -10 -16 -34 -16 -70 l0 -54 -60 0 c-56 0 -60 -2 -66
-27 -9 -35 16 -53 78 -53 l48 0 0 -46 c0 -54 14 -84 38 -84 30 0 42 22 42 77
l0 53 53 0 c65 0 96 24 78 59 -9 16 -23 21 -69 23 l-57 3 -3 55 c-2 37 -8 59
-19 68 -22 16 -28 15 -47 -4z"/>
</g>
</svg>
