<?xml version="1.0" standalone="no"?>
<!DOCTYPE svg PUBLIC "-//W3C//DTD SVG 20010904//EN"
 "http://www.w3.org/TR/2001/REC-SVG-20010904/DTD/svg10.dtd">
<svg version="1.0" xmlns="http://www.w3.org/2000/svg"
 width="128.000000pt" height="128.000000pt" viewBox="0 0 128.000000 128.000000"
 preserveAspectRatio="xMidYMid meet">

<g transform="translate(0.000000,128.000000) scale(0.100000,-0.100000)"
fill="#000000" stroke="none">
<path d="M870 990 l0 -70 -69 0 c-50 0 -70 -4 -74 -14 -9 -22 2 -26 75 -26
l68 0 0 -70 c0 -56 3 -70 15 -70 12 0 15 14 15 70 l0 70 70 0 c63 0 70 2 70
20 0 18 -7 20 -70 20 l-70 0 0 70 c0 56 -3 70 -15 70 -12 0 -15 -14 -15 -70z"/>
<path d="M581 1039 c-18 -6 -45 -17 -58 -26 -49 -33 -53 -54 -53 -308 0 -129
-2 -235 -4 -235 -2 0 -17 7 -32 15 -59 30 -141 7 -175 -49 -25 -40 -25 -112 0
-152 21 -34 75 -64 116 -64 42 0 93 29 115 65 19 31 20 49 20 347 l0 315 23
21 c13 12 43 28 68 35 26 8 44 19 44 27 0 18 -21 21 -64 9z"/>
<path d="M907 613 c-4 -3 -7 -20 -7 -36 0 -29 0 -30 -20 -12 -11 10 -41 20
-67 22 -116 11 -192 -120 -124 -215 59 -83 178 -77 231 11 16 26 20 51 20 135
0 78 -3 102 -13 102 -8 0 -17 -3 -20 -7z"/>
</g>
</svg>
