<?xml version="1.0" standalone="no"?>
<!DOCTYPE svg PUBLIC "-//W3C//DTD SVG 20010904//EN"
 "http://www.w3.org/TR/2001/REC-SVG-20010904/DTD/svg10.dtd">
<svg version="1.0" xmlns="http://www.w3.org/2000/svg"
 width="128.000000pt" height="128.000000pt" viewBox="0 0 128.000000 128.000000"
 preserveAspectRatio="xMidYMid meet">

<g transform="translate(0.000000,128.000000) scale(0.100000,-0.100000)"
fill="#000000" stroke="none">
<path d="M401 1096 c-124 -56 -230 -110 -235 -119 -8 -12 -8 -22 0 -34 9 -14
452 -223 474 -223 22 0 465 209 474 223 8 12 8 22 0 34 -10 16 -455 224 -477
222 -7 0 -113 -46 -236 -103z"/>
<path d="M92 828 c-18 -18 -17 -521 1 -536 18 -14 456 -212 471 -212 33 0 36
22 36 281 0 193 -3 259 -12 267 -19 14 -457 212 -472 212 -6 0 -17 -5 -24 -12z"/>
<path d="M940 745 c-113 -51 -217 -100 -232 -109 l-28 -15 0 -259 c0 -260 3
-282 36 -282 15 0 453 198 472 212 9 8 12 74 12 267 0 263 -3 282 -39 280 -9
0 -108 -42 -221 -94z"/>
</g>
</svg>
