<?xml version="1.0" standalone="no"?>
<!DOCTYPE svg PUBLIC "-//W3C//DTD SVG 20010904//EN"
 "http://www.w3.org/TR/2001/REC-SVG-20010904/DTD/svg10.dtd">
<svg version="1.0" xmlns="http://www.w3.org/2000/svg"
 width="24.000000pt" height="24.000000pt" viewBox="0 0 24.000000 24.000000"
 preserveAspectRatio="xMidYMid meet">

<g transform="translate(0.000000,24.000000) scale(0.100000,-0.100000)"
fill="#000000" stroke="none">
<path d="M75 215 c-14 -13 -25 -33 -25 -45 0 -11 -5 -20 -10 -20 -7 0 -10 -27
-8 -72 l3 -73 85 0 85 0 3 73 c2 45 -1 72 -8 72 -5 0 -10 9 -10 20 0 27 -43
70 -70 70 -11 0 -32 -11 -45 -25z m73 -17 c7 -7 12 -20 12 -30 0 -14 -8 -18
-40 -18 -32 0 -40 4 -40 18 0 22 19 42 40 42 9 0 21 -5 28 -12z m-14 -106 c-1
-7 -2 -21 -2 -32 -1 -11 -6 -20 -11 -20 -10 0 -22 51 -14 63 7 11 28 3 27 -11z"/>
</g>
</svg>
