<?xml version="1.0" standalone="no"?>
<!DOCTYPE svg PUBLIC "-//W3C//DTD SVG 20010904//EN"
 "http://www.w3.org/TR/2001/REC-SVG-20010904/DTD/svg10.dtd">
<svg version="1.0" xmlns="http://www.w3.org/2000/svg"
 width="24.000000pt" height="24.000000pt" viewBox="0 0 24.000000 24.000000"
 preserveAspectRatio="xMidYMid meet">

<g transform="translate(0.000000,24.000000) scale(0.100000,-0.100000)"
fill="#000000" stroke="none">
<path d="M180 215 c11 -13 4 -15 -57 -15 -82 0 -113 -17 -113 -61 0 -16 5 -29
10 -29 6 0 10 10 10 23 0 37 19 47 93 47 61 0 68 -2 57 -15 -22 -26 -1 -30 25
-5 l25 24 -22 23 c-24 25 -48 32 -28 8z"/>
<path d="M210 107 c0 -37 -19 -47 -93 -47 -61 0 -68 2 -57 15 22 26 1 30 -25
5 l-25 -24 22 -23 c24 -25 48 -32 28 -8 -11 13 -4 15 57 15 82 0 113 17 113
61 0 16 -4 29 -10 29 -5 0 -10 -10 -10 -23z"/>
</g>
</svg>
