<?xml version="1.0" standalone="no"?>
<!DOCTYPE svg PUBLIC "-//W3C//DTD SVG 20010904//EN"
 "http://www.w3.org/TR/2001/REC-SVG-20010904/DTD/svg10.dtd">
<svg version="1.0" xmlns="http://www.w3.org/2000/svg"
 width="24.000000pt" height="24.000000pt" viewBox="0 0 24.000000 24.000000"
 preserveAspectRatio="xMidYMid meet">

<g transform="translate(0.000000,24.000000) scale(0.100000,-0.100000)"
fill="#000000" stroke="none">
<path d="M120 212 c-21 -18 -31 -33 -26 -41 6 -9 15 -6 36 14 58 56 111 3 55
-55 -20 -21 -23 -30 -14 -36 16 -10 69 52 69 81 0 26 -39 65 -66 65 -11 0 -35
-13 -54 -28z"/>
<path d="M111 126 c-24 -24 -39 -46 -34 -49 6 -4 29 13 52 37 24 24 39 46 34
49 -6 4 -29 -13 -52 -37z"/>
<path d="M26 117 c-15 -19 -26 -43 -26 -54 0 -25 40 -63 66 -63 28 0 89 53 80
69 -6 9 -15 6 -36 -14 -58 -55 -111 -3 -56 54 24 25 26 41 5 41 -4 0 -19 -15
-33 -33z"/>
</g>
</svg>
