<?xml version="1.0" standalone="no"?>
<!DOCTYPE svg PUBLIC "-//W3C//DTD SVG 20010904//EN"
 "http://www.w3.org/TR/2001/REC-SVG-20010904/DTD/svg10.dtd">
<svg version="1.0" xmlns="http://www.w3.org/2000/svg"
 width="128.000000pt" height="128.000000pt" viewBox="0 0 128.000000 128.000000"
 preserveAspectRatio="xMidYMid meet">

<g transform="translate(0.000000,128.000000) scale(0.100000,-0.100000)"
fill="#000000" stroke="none">
<path d="M521 1264 c-220 -47 -401 -227 -447 -443 -36 -172 7 -354 117 -486
22 -27 48 -54 56 -58 23 -14 63 1 75 28 10 22 7 31 -21 68 -58 78 -83 120
-102 175 -60 174 -12 362 125 489 188 174 462 168 644 -13 208 -208 173 -546
-73 -713 -32 -22 -114 -61 -128 -61 -2 0 -1 17 1 37 5 40 -14 63 -53 63 -26 0
-175 -149 -175 -176 0 -25 151 -174 177 -174 50 0 71 70 33 105 -20 18 -19 19
54 40 100 29 174 76 254 160 97 102 147 213 158 352 22 283 -179 549 -461 608
-86 18 -150 18 -234 -1z"/>
<path d="M562 939 c-84 -48 -109 -77 -92 -108 20 -38 47 -45 91 -22 l39 21 0
-186 c0 -183 0 -185 25 -209 30 -31 40 -31 70 0 l25 24 0 233 c0 167 -4 240
-13 258 -20 39 -60 36 -145 -11z"/>
</g>
</svg>
